<?xml version="1.0" encoding="UTF-8"?>
<svg width="200px" height="200px" viewBox="0 0 200 200" version="1.1" xmlns="http://www.w3.org/2000/svg" xmlns:xlink="http://www.w3.org/1999/xlink">
    <title>3769E543-A236-44AB-A7AD-F991A7DF4266</title>
    <defs>
        <linearGradient x1="-4.75314232e-13%" y1="158.770193%" x2="100%" y2="158.770193%" id="linearGradient-1">
            <stop stop-color="#FFC901" offset="0%"></stop>
            <stop stop-color="#FA3E00" offset="100%"></stop>
        </linearGradient>
    </defs>
    <g id="Page-1" stroke="none" stroke-width="1" fill="none" fill-rule="evenodd">
        <g id="인트로" transform="translate(-88.000000, -306.000000)">
            <g id="i_logo_splash" transform="translate(88.000000, 306.000000)">
                <rect id="Rectangle" x="0" y="0" width="200" height="200"></rect>
                <g id="Group-3" transform="translate(10.000000, 34.000000)">
                    <g id="Group-6" transform="translate(50.000000, 0.000000)">
                        <path d="M31.256981,5.70993564 L1.80880601,55.2814711 C-1.482004,60.8210506 0.340983821,67.9794956 5.88056326,71.2703056 C7.68356935,72.3413888 9.741949,72.9066724 11.8391019,72.9066724 L70.7354519,72.9066724 C77.1787718,72.9066724 82.4021146,67.6833296 82.4021146,61.2400097 C82.4021146,59.1428569 81.836831,57.0844772 80.7657478,55.2814711 L51.3175727,5.70993564 C48.0267627,0.170356198 40.8683177,-1.65263162 35.3287383,1.63817838 C33.6525934,2.63389916 32.2527018,4.03379075 31.256981,5.70993564 Z" id="Path-2" fill="#06ACFB" style="mix-blend-mode: multiply;"></path>
                        <path d="M31.0863534,81.8292974 L1.63817838,32.257762 C-1.65263162,26.7181825 0.170356198,19.5597375 5.70993564,16.2689275 C7.51294172,15.1978443 9.57132138,14.6325607 11.6684742,14.6325607 L70.5648243,14.6325607 C77.0081441,14.6325607 82.2314869,19.8559035 82.2314869,26.2992234 C82.2314869,28.3963762 81.6662033,30.4547559 80.5951201,32.257762 L51.1469451,81.8292974 C47.8561351,87.3688769 40.6976901,89.1918647 35.1581107,85.9010547 C33.4819658,84.9053339 32.0820742,83.5054423 31.0863534,81.8292974 Z" id="Path-2" fill="#FFC901" style="mix-blend-mode: multiply;"></path>
                        <path d="M16.7573593,69.3634319 L5.71584794,50.7767224 C-2.27611921,37.3234581 2.15113692,19.938663 15.6044013,11.9466959 C19.9831303,9.34549381 24.9820524,7.97266223 30.0751379,7.97266223 L52.1581606,7.97266223 C67.8062232,7.97266223 80.4914842,20.6579233 80.4914842,36.3059858 C80.4914842,41.3990713 79.1186526,46.3979934 76.5174506,50.7767224 L65.4759392,69.3634319 C57.4839721,82.8166962 40.099177,87.2439524 26.6459126,79.2519852 C22.5752751,76.8338062 19.1755383,73.4340694 16.7573593,69.3634319 Z" id="Path-2" fill="#FEA285" style="mix-blend-mode: multiply;"></path>
                        <path d="M16.7573593,16.5108266 L5.71584794,35.097536 C-2.27611921,48.5508004 2.15113692,65.9355955 15.6044013,73.9275626 C19.9831303,76.5287647 24.9820524,77.9015962 30.0751379,77.9015962 L52.1581606,77.9015962 C67.8062232,77.9015962 80.4914842,65.2163352 80.4914842,49.5682727 C80.4914842,44.4751871 79.1186526,39.4762651 76.5174506,35.097536 L65.4759392,16.5108266 C57.4839721,3.05756223 40.099177,-1.3696939 26.6459126,6.62227326 C22.5752751,9.04045229 19.1755383,12.440189 16.7573593,16.5108266 Z" id="Path-2" fill="#FB7EED" style="mix-blend-mode: multiply;"></path>
                    </g>
                    <g id="Group-2" transform="translate(0.000000, 103.000000)">
                        <path d="M143.687838,6.05794885 L143.687838,11.0421803 C145.033936,11.0421803 146.350359,11.1221641 147.652336,11.0200489 C149.005462,10.914051 149.870518,9.91075941 149.897069,8.65761559 C149.928891,7.15073685 149.292057,6.24878392 147.790167,6.08823397 C146.447583,5.9445738 145.076886,6.05794885 143.687838,6.05794885 M152.96996,14.4857535 C153.892998,16.5134975 154.793976,18.4929017 155.694759,20.4725001 C156.142221,21.4557957 156.589489,22.4390914 157.035781,23.4229694 C157.095716,23.5549815 157.157212,23.6869935 157.205824,23.8232766 C157.556454,24.8036602 157.204458,25.4048974 156.161744,25.4413949 C154.749073,25.4905111 153.332498,25.4790571 151.919047,25.4439186 C150.913231,25.4188752 150.273859,24.8209382 149.902145,23.9354868 C149.402946,22.7469901 148.925223,21.549369 148.444181,20.3534951 C147.975243,19.1873239 147.5065,18.0207645 147.054352,16.8481869 C146.941901,16.5567897 146.805631,16.4166239 146.459687,16.4274955 C145.551095,16.4560334 144.640942,16.4372023 143.652502,16.4372023 L143.652502,16.9765103 C143.652502,19.0908387 143.655821,21.205167 143.651135,23.3196894 C143.647816,24.7691041 142.95788,25.4528489 141.499917,25.460226 C140.63818,25.4646911 139.776247,25.4683797 138.914511,25.4592553 C137.566851,25.4448893 136.831036,24.7236764 136.83006,23.3837541 C136.824203,16.4273014 136.824203,9.47084866 136.83006,2.51439594 C136.831231,1.16884369 137.511601,0.468985682 138.869803,0.463938162 C141.893887,0.452760919 144.919142,0.43384718 147.942054,0.501406288 C149.750648,0.541786445 151.522538,0.877252365 153.165969,1.7001922 C154.954453,2.5959328 156.130508,3.98244761 156.554153,5.93952628 C157.046909,8.21576349 156.884869,10.3988157 155.472979,12.3644364 C154.829703,13.2599828 153.983779,13.9295557 152.96996,14.4857535 M117.6193,12.9312534 C117.710276,13.9415339 117.784463,14.9535615 117.900233,15.9611241 C117.94943,16.3901633 118.064225,16.815708 118.186633,17.2319342 C118.480841,18.2334786 118.872274,19.1874598 119.755291,19.8385899 C121.869221,21.3974969 124.936255,20.4846724 125.903805,17.9921684 C126.735282,15.8500787 126.763004,13.6105331 126.620683,11.3616689 C126.534783,10.0040803 126.293871,8.67561194 125.704868,7.43081595 C124.892524,5.7136886 123.246946,4.91385088 121.367484,5.2685362 C119.864228,5.55216797 118.994096,6.50051926 118.467175,7.84432429 C117.826046,9.47972065 117.673573,11.1906357 117.6193,12.9312534 M110.849569,13.0017245 C110.91009,10.0314534 111.365752,7.15106688 113.047643,4.60905834 C114.888058,1.82748676 117.515438,0.340215691 120.863601,0.0853159496 C122.596641,-0.0466961021 124.312501,0.0193099238 125.972135,0.544640235 C128.770535,1.43009166 130.847372,3.22487316 132.006832,5.8788978 C134.062193,10.5839626 134.145556,15.3841538 132.022645,20.0822298 C130.47761,23.5013419 127.639383,25.3304853 123.900569,25.7622424 C121.625186,26.0249076 119.386505,25.8752292 117.266913,24.9348375 C114.132135,23.5438575 112.349507,21.0402878 111.461024,17.8329774 C111.023713,16.2542685 110.833756,14.6413919 110.849569,13.0017245 M79.3299489,25.8658525 C77.2769299,25.8639111 75.2877505,25.5631954 73.4432351,24.6047491 C71.8031236,23.752689 70.7028179,22.4048071 69.9656365,20.7564037 C69.4847896,19.6805054 69.8147252,18.9346373 70.9324062,18.5422898 C71.9247508,18.1940109 72.9350563,17.891548 73.9478998,17.606169 C74.9525438,17.3229255 75.3898548,17.5205553 75.9290749,18.4151311 C77.1754113,20.4826728 79.601316,21.2394125 81.7986085,20.2450511 C82.5074819,19.9243395 83.0029709,19.4419131 83.0744244,18.6205263 C83.1525156,17.7214854 82.7958338,17.0635606 82.0160927,16.6079249 C80.7810795,15.8865179 79.3994501,15.575513 78.0414432,15.2051027 C76.4608763,14.7739281 74.894561,14.3336291 73.4475302,13.5252494 C69.3561343,11.2393054 69.2245505,6.02094665 71.13681,3.48029706 C72.263862,1.98273682 73.7501338,1.02234914 75.5304191,0.525556729 C78.4307281,-0.283405359 81.3169808,-0.157799774 84.1358797,0.897714233 C85.8074229,1.52341253 87.0436074,2.6956019 87.9506373,4.20908124 C88.0968632,4.45272113 88.1903774,4.73732358 88.259293,5.01493716 C88.4121566,5.63170523 88.2762778,6.04967869 87.6839557,6.29098895 C86.6080535,6.72895835 85.5042336,7.10985194 84.3904572,7.44298824 C83.6599135,7.66139053 83.064663,7.32301258 82.5943584,6.75419594 C81.6957233,5.66742614 80.5577386,5.03454484 79.1196882,5.1485023 C78.5740256,5.19179449 77.9902935,5.3614688 77.5205746,5.63636448 C76.3128934,6.34301723 76.2970799,8.06732759 77.5502493,8.68526047 C78.7434836,9.27368478 80.0438981,9.66389687 81.3222519,10.0618744 C82.7743587,10.5136274 84.2785914,10.8040539 85.6332794,11.5371091 C87.5211354,12.5588435 88.8931987,13.9938922 89.2848263,16.1612194 C90.097561,20.6581712 87.8401382,24.1992003 83.3717568,25.3473169 C82.0631427,25.6835593 80.694203,25.7887807 79.3529858,26 C79.3453719,25.9553489 79.3375628,25.9105036 79.3299489,25.8658525 M169.101308,9.50623954 C169.241287,9.23386761 169.328554,9.06768774 169.412502,8.90014891 C170.518665,6.69477111 171.619556,4.48686954 172.732942,2.28537445 C173.124765,1.51058018 173.580232,0.779078108 174.516937,0.558734463 C174.782642,0.496222874 175.061428,0.463996403 175.334747,0.461084372 C176.423925,0.450018656 177.513298,0.444194595 178.602476,0.458948883 C179.936665,0.477003472 180.332978,1.13259862 179.716252,2.3092531 C177.394209,6.73903397 175.060647,11.1627967 172.745632,15.5962661 C172.603701,15.8680556 172.5219,16.2029391 172.519167,16.5094789 C172.50023,18.7039851 172.510187,20.8988796 172.507453,23.0937741 C172.507063,23.3513917 172.502963,23.6111449 172.469384,23.8658505 C172.329405,24.9227234 172.059991,25.3063349 170.987407,25.3849597 C169.666103,25.4816391 168.325667,25.4564016 167.003387,25.3562277 C166.086791,25.2867272 165.767983,24.879043 165.688135,23.9615592 C165.621367,23.1920066 165.630347,22.415271 165.626833,21.6416415 C165.619024,19.9148074 165.633471,18.1879733 165.61512,16.4613333 C165.612191,16.1852728 165.537028,15.8851395 165.410911,15.6387817 C163.161688,11.2447218 160.899189,6.85726241 158.6404,2.46805583 C157.917275,1.06290402 158.291917,0.459337154 159.889664,0.455648582 C160.881423,0.453124822 161.875134,0.493310844 162.864355,0.445747678 C164.21631,0.380712329 165.069262,1.01165228 165.617658,2.18345338 C166.581499,4.24264725 167.563496,6.2934933 168.538856,8.34725138 C168.70441,8.69572437 168.875625,9.04147946 169.101308,9.50623954 M97.1125957,5.97751857 C96.1325505,5.97751857 95.2099024,5.98508985 94.2872543,5.97499481 C93.6055176,5.96761767 92.9210478,5.97091797 92.243411,5.90898878 C91.3904593,5.83094636 90.9658381,5.49256841 90.8900896,4.65506843 C90.8020417,3.68380917 90.8024322,2.69177743 90.895556,1.72110058 C90.9746234,0.896995932 91.4792881,0.543669559 92.325602,0.479993157 C92.4552335,0.470092253 92.5852554,0.460773756 92.7152774,0.460773756 C97.9173261,0.459803079 103.11957,0.451455258 108.321619,0.46562714 C109.648194,0.469315712 110.098976,0.834484343 110.219627,2.09248154 C110.300451,2.93541732 110.258672,3.80203761 110.16301,4.64594407 C110.06852,5.4815027 109.656589,5.86123148 108.811836,5.90355299 C107.45012,5.97208278 106.083914,5.95752263 104.71966,5.97693616 C104.478943,5.98023646 104.238227,5.97732443 103.936014,5.97732443 L103.936014,6.58244438 C103.936014,12.1176321 103.9366,17.6528197 103.935624,23.1878133 C103.935428,24.9917191 103.464733,25.4597795 101.655359,25.4609443 C100.793817,25.4617209 99.9318851,25.4745338 99.0707338,25.4568675 C97.6851998,25.4283296 97.1194287,24.8577657 97.1155241,23.4865876 C97.1083007,20.9692343 97.1127909,18.4516868 97.1125957,15.9343334 C97.1124005,12.8198197 97.1125957,9.70530595 97.1125957,6.5907922 L97.1125957,5.97751857 Z" id="Combined-Shape" fill="#231F20"></path>
                        <path d="M43.570657,6.06175391 L43.570657,11.1880925 C44.9206595,11.1376173 46.2384494,11.151595 47.5415971,11.0221067 C48.8939423,10.8875709 49.7381088,9.88777378 49.7724689,8.57794244 C49.8091718,7.18424462 49.1174786,6.24171739 47.6677145,6.09145662 C46.3233736,5.95206742 44.9530674,6.06175391 43.570657,6.06175391 M52.8404789,14.4959651 C53.5042546,15.9593575 54.1479217,17.3825639 54.795103,18.8040231 C55.4830869,20.3151728 56.1743897,21.8247694 56.8641307,23.3351426 C56.8977099,23.4085258 56.9310939,23.4819089 56.9631113,23.5558745 C57.5163878,24.8379445 57.104066,25.4554891 55.6861241,25.4603425 C54.5481394,25.4642252 53.4089833,25.4304457 52.2723651,25.4692727 C50.9781978,25.5135356 50.1492592,24.9324884 49.682664,23.7624346 C48.8470876,21.6673256 48.0015546,19.5760994 47.1618784,17.4825436 C46.7429188,16.4379012 46.7444807,16.4371246 45.5979059,16.4371246 C44.9333493,16.4371246 44.268988,16.4371246 43.5341493,16.4371246 C43.5341493,16.6403844 43.5341493,16.8110294 43.5341493,16.9816743 C43.5341493,19.0633879 43.5366873,21.1451015 43.5333684,23.2268151 C43.5306352,24.7820335 42.8399181,25.4584011 41.2618892,25.4609249 C40.4327553,25.4622839 39.6034262,25.4688845 38.7744876,25.4591777 C37.4274135,25.4432586 36.7134642,24.7523308 36.7124881,23.4302689 C36.7066313,16.4427546 36.706436,9.45524018 36.7124881,2.46753166 C36.7134642,1.1685719 37.3770446,0.472402464 38.6831208,0.466578403 C41.7554259,0.452600656 44.8290975,0.432410578 47.9000359,0.506182019 C49.7076532,0.549474206 51.478958,0.899306143 53.1128222,1.74127124 C55.3114814,2.87405113 56.4141298,4.71678406 56.6124816,7.12309197 C56.7056054,8.25257156 56.6642171,9.38166287 56.3090971,10.4742567 C55.8110701,12.0067613 54.850743,13.1909871 53.5091353,14.0801271 C53.3080503,14.2134981 53.0993514,14.3354151 52.8404789,14.4959651 M11.2072803,17.7311728 C11.6645046,16.1186844 12.0887353,14.6343253 12.506133,13.1482191 C13.4939874,9.6300979 14.4775467,6.11100605 15.4665724,2.59307901 C15.5403686,2.33021972 15.6358351,2.07260208 15.7324731,1.81673166 C16.0725605,0.914778732 16.7207179,0.453862146 17.7013487,0.457589935 C18.8879453,0.462249184 20.0745419,0.446718355 21.2609432,0.458172342 C22.7169546,0.472150088 23.1610986,1.08891816 22.7128548,2.47057959 C21.0579059,7.57012749 19.3984669,12.6681223 17.7398087,17.7663113 C17.1422154,19.6036084 16.5420841,21.440129 15.9431242,23.2770379 C15.9032977,23.3995373 15.8685471,23.5237839 15.8246207,23.6447303 C15.3297174,25.0044544 14.7051827,25.4494127 13.2376528,25.4589253 C11.8398194,25.4680497 10.4417908,25.4680497 9.04395742,25.4589253 C7.51883529,25.4490244 6.88863889,25.0013482 6.4521088,23.5476626 C4.34110705,16.516856 2.2431856,9.48216675 0.141164345,2.44864229 C0.113441951,2.35603972 0.0882575227,2.26266061 0.067172885,2.16831082 C-0.176081362,1.07746417 0.238192725,0.502046935 1.36134014,0.473703171 C2.72578953,0.439341211 4.09160551,0.464578809 5.4568358,0.458754748 C6.43024325,0.45448377 7.07566744,0.930697832 7.34664408,1.83090354 C7.64768585,2.83128311 7.8833262,3.85204688 8.12404248,4.86951036 C9.11013976,9.03623781 10.0868661,13.2052949 11.0686683,17.372993 C11.0864341,17.4483175 11.1243083,17.5189828 11.2072803,17.7311728 M25.498233,12.9581411 C25.498233,9.50583185 25.496476,6.0537167 25.499014,2.60140741 C25.5003805,0.94193827 25.9700994,0.472713081 27.6447663,0.456988116 C28.4897136,0.44883443 29.3348562,0.45388195 30.1799988,0.45679398 C30.3748364,0.457570522 30.570455,0.464753531 30.7641213,0.485137744 C31.7078541,0.584340919 32.1281803,0.968146545 32.2796773,1.89067782 C32.3210656,2.14344208 32.319699,2.40474828 32.319699,2.66197765 C32.3216513,9.51806238 32.3214561,16.3741471 32.3210656,23.2302318 C32.3210656,24.9791974 31.831043,25.4592942 30.0464627,25.4610414 C29.2015154,25.4618179 28.3561776,25.4695833 27.5112303,25.4589059 C26.0421386,25.4402689 25.5040899,24.908338 25.500771,23.4600881 C25.4943285,20.7175378 25.4984283,17.9751815 25.498233,15.2328253 C25.4980378,14.4745325 25.498233,13.7164339 25.498233,12.9581411 M62.9661029,8.90480816 C63.4531971,8.90480816 63.9414626,8.88325914 64.426995,8.90927328 C65.4796651,8.9653784 66.1512498,9.62835069 66.1854147,10.6650336 C66.2135276,11.5184526 66.2127467,12.3738131 66.1908811,13.2274263 C66.1615969,14.3701071 65.4812269,15.0559874 64.3272334,15.0919024 C63.402633,15.1206344 62.4756899,15.1192755 61.5510895,15.09132 C60.5052524,15.0596759 59.7961838,14.476105 59.7106739,13.4619418 C59.6284829,12.486994 59.6271163,11.4941857 59.71165,10.5196262 C59.8012597,9.4901263 60.4968576,8.93878185 61.5536274,8.90286681 C62.023932,8.88694771 62.4952127,8.90014891 62.9661029,8.90014891 C62.9661029,8.901702 62.9661029,8.90325508 62.9661029,8.90480816 M62.969617,19.2598723 C63.4405073,19.2598723 63.9121784,19.2404588 64.3818973,19.263755 C65.493331,19.3190836 66.1559353,19.9760377 66.1889289,21.0719319 C66.2137228,21.8931245 66.2127467,22.7162585 66.1932239,23.5376452 C66.1653062,24.7195413 65.5124634,25.4007624 64.3239145,25.4492962 C63.3998998,25.4871526 62.4719805,25.4857936 61.5479658,25.4485197 C60.4857296,25.4054216 59.7907174,24.829422 59.7108691,23.8142881 C59.6316065,22.8076962 59.6441011,21.7836321 59.7335156,20.7774285 C59.8145353,19.8669336 60.4800679,19.3274314 61.4115013,19.2711322 C61.9290511,19.2398764 62.450115,19.2655023 62.969617,19.2655023 C62.969617,19.263755 62.969617,19.2618137 62.969617,19.2598723" id="Combined-Shape" fill="url(#linearGradient-1)"></path>
                    </g>
                </g>
            </g>
        </g>
    </g>
</svg>